<?xml version="1.0" encoding="utf-8"?>
<!-- Generator: Adobe Illustrator 25.2.0, SVG Export Plug-In . SVG Version: 6.00 Build 0)  -->
<svg version="1.1" xmlns="http://www.w3.org/2000/svg" xmlns:xlink="http://www.w3.org/1999/xlink" x="0px" y="0px"
	 viewBox="0 0 240 44" style="enable-background:new 0 0 240 44;" xml:space="preserve">
<style type="text/css">
	.st0{fill:#004522;}
	.st1{font-family:'MyriadPro-Regular';}
	.st2{font-size:18.4033px;}
	.st3{font-size:4.005px;}
	.st4{fill:#002E18;stroke:#07D000;stroke-width:0.5;stroke-miterlimit:10;}
</style>
<g id="Layer_1">
	<text transform="matrix(1.3153 0 0 1 64.7127 30.4443)" class="st0 st1 st2">VEG</text>
	<text transform="matrix(1.3153 0 0 1 141.1492 29.4443)" class="st0 st1 st2">OUT</text>
	<text transform="matrix(1 0 0 1 118.2127 43)" class="st1 st3">B &amp; T</text>
</g>
<g id="Layer_2">
	<polygon class="st4" points="123.4,38.9 110.9,38.9 120.7,38.4 118.5,37.8 120.7,37.8 120,36.4 121.5,37.7 121.3,35.5 120.9,32.1 
		120,29.6 118.5,27.5 117.5,25.4 116.2,23.6 114.6,26.8 113.2,23.2 110.9,27.2 110.1,23.8 107.5,25.9 111.5,20.9 107.5,20.5 
		114,20.5 110.7,17.3 115.8,19.3 119.6,16.8 116.8,20 120.8,18.2 118.1,20.8 123.8,25.2 118.1,22 119,25.2 120.6,28.3 121.7,31.3 
		123,35.9 123.4,31.8 124.2,27.9 125,24.6 126.3,22 125.8,19.6 126.9,15.3 122.8,22 121.7,19 123,15.3 126.3,14.3 123.9,13.4 
		118.5,13.7 124,11.5 128,13 125.6,10.1 123.4,7.6 128.4,9.1 129.9,11.6 132.3,8 135.2,6.7 136.5,6.7 134.9,8.6 133,11.2 
		135.6,10.5 138.7,10.7 141.2,11.5 137.6,12.6 134,13.2 138,13.5 141.2,16.1 137.6,15.3 132.8,15.2 136.5,16.8 137.8,19.6 137.1,24 
		135,20 132.4,17.9 130,17.3 128.7,20 127.4,24 126.3,27.6 125,31.6 124.6,33.4 125.8,31.5 125.3,33.8 124.9,35.8 126.3,34.9 
		125.9,36.6 127.4,35.8 126.3,37.5 127.8,37.1 126.3,38.3 129,38.5 140.8,38.9 	"/>
</g>
</svg>
