<svg id="Layer_2" data-name="Layer 2" xmlns="http://www.w3.org/2000/svg" viewBox="0 0 412.96 159"><defs><style>.cls-1{fill:#008b33;}.cls-2{font-size:72px;fill:#318b00;font-family:PartyLetPlain, Party LET;}</style></defs><polygon class="cls-1" points="92.06 152 98.06 135 133.06 106 155.06 87 164.06 97 138.06 128 117.06 152 102.06 159 92.06 152"/><polygon class="cls-1" points="168.06 74 176.06 82 192.06 66 198.06 69 204.06 70 213.06 68 221.18 66 229.06 60 235.06 54 240.06 48 245.06 40 248.06 31 251.06 21 251.06 12.42 248.06 7 243.06 2 235.06 0 225.9 0 215.06 4.06 208.06 8 201.06 13 192.06 19 186.06 29 182.06 38 181.06 44 182.06 51 184.06 57 168.06 74"/><polygon class="cls-1" points="139.06 67 133.06 69 124.91 69 116.56 68 110.06 65 102.06 60 96.06 55 90.06 46 86.06 38 82.06 30 81.06 21 81.06 11.69 86.06 4 92.06 0 101.3 0 110.06 1.52 119.06 6 128.06 9.88 134.06 16 142.06 23 147.06 32 149.98 41 149.98 47.65 148.06 57 149.98 62.18 156.06 67 175.77 87 186.06 96 198.06 105 209.56 114.49 220.45 123 228.06 132 237.06 141 241.06 149 238.06 155 233.89 159 228.44 159 221.06 157 215.06 151.54 205.06 143 197.06 133 188.48 123 180.06 114 171.06 103 139.06 67"/><text class="cls-2" transform="translate(0 103.96)">Buen</text><text class="cls-2" transform="translate(237.74 103.31)">Provecho</text></svg>